<svg width="142" height="146" viewBox="0 0 142 146" fill="none" xmlns="http://www.w3.org/2000/svg">
<path d="M20.0228 1.39531L72.0211 62.8565C71.6693 62.8305 71.2923 62.8305 70.9153 62.8305C67.098 62.8305 63.3352 63.374 59.7034 64.3913L10.5508 7.26048L16.3535 1.26548C16.8562 0.772127 17.5347 0.460536 18.2133 0.512468C18.917 0.538434 19.5704 0.850025 20.0228 1.39531ZM1.27426 16.845C0.344371 17.8057 0.294107 19.3637 1.17373 20.4023L44.7779 72.0744C45.7078 71.3214 46.688 70.5943 47.6932 69.9192C49.8719 68.4539 52.173 67.2346 54.5485 66.2154L6.99106 10.9385L1.27426 16.845ZM125.477 1.26548C124.974 0.772127 124.296 0.486502 123.592 0.512468C122.914 0.538434 122.235 0.87599 121.783 1.42127L104.467 22.168L74.1322 57.4816L76.4444 60.208L79.2089 63.6614C80.7656 63.9741 82.2848 64.4033 83.7839 64.8927L131.292 7.27294L125.477 1.26548ZM140.556 16.845L134.858 10.958L88.7347 66.8996C90.5646 67.7749 92.3608 68.7432 94.0871 69.8932C95.0924 70.5684 96.0725 71.2694 97.0275 72.0484L140.657 20.4023C141.536 19.3637 141.486 17.8317 140.556 16.845ZM107.234 10.8988L115.904 0.512468H25.955L34.7407 10.8988H107.234ZM94.0421 26.4783L100.71 18.7127L102.898 16.092H39.1337L47.9194 26.4783H94.0421ZM88.5078 106.972C88.5078 116.995 80.6148 125.149 70.9153 125.149C61.2158 125.149 53.3228 116.995 53.3228 106.972C53.3228 96.9499 61.2158 88.7964 70.9153 88.7964C80.6148 88.7964 88.5078 96.9499 88.5078 106.972ZM91.3597 74.2604C86.5296 71.0186 81.189 69.014 75.5001 68.3041C74.047 68.1151 72.5474 68.0237 70.9153 68.0237C63.6235 68.0237 56.5355 70.188 50.4193 74.2843C39.6474 81.5124 33.2171 93.7322 33.2171 106.972C33.2171 128.449 50.1273 145.921 70.9153 145.921C91.7033 145.921 108.613 128.449 108.613 106.972C108.613 93.6878 102.161 81.4566 91.3597 74.2604ZM70.9153 130.342C58.4425 130.342 48.2964 119.858 48.2964 106.972C48.2964 94.0872 58.4425 83.6032 70.9153 83.6032C83.3881 83.6032 93.5342 94.0872 93.5342 106.972C93.5342 119.858 83.3881 130.342 70.9153 130.342Z" fill="white"/>
<path d="M65.6633 103.888C65.7833 101.008 67.6633 99.4282 70.6433 99.4282C73.7233 99.4282 75.3833 101.188 75.3833 103.388C75.3833 105.308 74.1833 106.328 73.1833 106.668V106.748C74.6433 107.228 75.6433 108.348 75.6433 110.268C75.6433 112.728 73.8833 114.488 70.8233 114.488C67.7833 114.488 65.5833 113.048 65.4833 109.748H68.8033C68.8233 110.888 69.4433 111.648 70.7033 111.648C71.7633 111.648 72.3433 110.968 72.3433 110.008C72.3433 108.708 71.5633 108.188 69.7833 108.188H69.1433V105.408H69.7833C70.9433 105.408 72.0633 105.128 72.0633 103.808C72.0633 102.828 71.4833 102.288 70.5633 102.288C69.4633 102.288 69.0633 103.088 69.0033 103.888H65.6633Z" fill="#444444"/>
</svg>
