<svg width="138" height="160" viewBox="0 0 138 160" fill="none" xmlns="http://www.w3.org/2000/svg">
<path d="M132.219 23.538H110.228V12.1692C113.265 12.1692 115.726 9.62424 115.726 6.48473C115.726 3.34522 113.265 0.800293 110.228 0.800293H27.7624C24.726 0.800293 22.2647 3.34522 22.2647 6.48473C22.2647 9.62424 24.726 12.1692 27.7624 12.1692V23.538H5.77148C2.74772 23.538 0.273743 26.096 0.273743 29.2225V34.9069C0.273743 54.9445 13.4683 72.4242 32.2706 77.2844L34.2772 77.796H34.3047C40.159 87.2594 49.559 94.1652 60.5798 96.5535C60.0553 104.688 58.2152 112.676 55.1115 120.173H41.5068C38.483 120.173 36.009 122.731 36.009 125.858V148.596C32.9726 148.596 30.5113 151.141 30.5113 154.28V159.965H107.48V154.28C107.48 151.141 105.018 148.596 101.982 148.596V125.858C101.982 122.731 99.5079 120.173 96.4841 120.173H82.8794C79.776 112.676 77.9356 104.688 77.4111 96.5535C88.4319 94.1652 97.8319 87.2594 103.686 77.796H103.714L105.72 77.2844C124.523 72.4242 137.717 54.9445 137.717 34.9069V29.2225C137.717 26.096 135.243 23.538 132.219 23.538ZM82.7398 134.385C82.7398 135.948 81.5028 137.227 79.9909 137.227H58C56.4881 137.227 55.2511 135.948 55.2511 134.385C55.2511 132.821 56.4881 131.542 58 131.542H79.9909C81.5028 131.542 82.7398 132.821 82.7398 134.385ZM11.2692 34.9069H27.7624V54.8024C27.7624 57.9289 28.0923 60.9416 28.697 63.8691C18.1964 58.5542 11.2692 47.4127 11.2692 34.9069ZM79.1938 65.3471L68.9955 59.8047L58.7972 65.3471L60.7488 53.6087L52.5022 45.281L63.91 43.5757L68.9955 32.8889L74.0809 43.5757L85.4887 45.281L77.2421 53.6087L79.1938 65.3471ZM109.294 63.8691C109.899 60.9416 110.228 57.9289 110.228 54.8024V34.9069H126.722C126.722 47.4127 119.795 58.5542 109.294 63.8691Z" fill="white"/>
</svg>
