<svg width="20" height="20" viewBox="0 0 20 20" fill="none" xmlns="http://www.w3.org/2000/svg">
<path d="M10 0C8.02219 0 6.08879 0.58649 4.4443 1.6853C2.79981 2.78412 1.51809 4.3459 0.761209 6.17316C0.00433284 8.00042 -0.1937 10.0111 0.192152 11.9509C0.578004 13.8907 1.53041 15.6725 2.92894 17.0711C4.32746 18.4696 6.10929 19.422 8.0491 19.8078C9.98891 20.1937 11.9996 19.9957 13.8268 19.2388C15.6541 18.4819 17.2159 17.2002 18.3147 15.5557C19.4135 13.9112 20 11.9778 20 10C19.997 7.34875 18.9425 4.80696 17.0678 2.93225C15.193 1.05753 12.6512 0.00300075 10 0ZM10 18.4615C8.32647 18.4615 6.69052 17.9653 5.29902 17.0355C3.90753 16.1057 2.823 14.7842 2.18256 13.2381C1.54213 11.6919 1.37456 9.99061 1.70105 8.34923C2.02754 6.70786 2.83343 5.20016 4.01679 4.01679C5.20016 2.83342 6.70786 2.02754 8.34924 1.70105C9.99062 1.37456 11.6919 1.54212 13.2381 2.18256C14.7842 2.82299 16.1057 3.90753 17.0355 5.29902C17.9653 6.69051 18.4615 8.32646 18.4615 10C18.459 12.2434 17.5667 14.3941 15.9804 15.9804C14.3941 17.5667 12.2434 18.459 10 18.4615ZM11.1538 10C11.1538 10.2282 11.0862 10.4513 10.9594 10.641C10.8326 10.8308 10.6524 10.9787 10.4416 11.066C10.2307 11.1533 9.99872 11.1762 9.7749 11.1317C9.55107 11.0872 9.34548 10.9773 9.18411 10.8159C9.02274 10.6545 8.91285 10.4489 8.86833 10.2251C8.82381 10.0013 8.84666 9.76928 8.93399 9.55844C9.02132 9.3476 9.16921 9.1674 9.35896 9.04061C9.54871 8.91382 9.77179 8.84615 10 8.84615C10.3059 8.8465 10.5992 8.96818 10.8155 9.18449C11.0318 9.4008 11.1535 9.69409 11.1538 10ZM15.7692 10C15.7692 10.2282 15.7016 10.4513 15.5748 10.641C15.448 10.8308 15.2678 10.9787 15.0569 11.066C14.8461 11.1533 14.6141 11.1762 14.3903 11.1317C14.1665 11.0872 13.9609 10.9773 13.7995 10.8159C13.6381 10.6545 13.5282 10.4489 13.4837 10.2251C13.4392 10.0013 13.462 9.76928 13.5494 9.55844C13.6367 9.3476 13.7846 9.1674 13.9743 9.04061C14.1641 8.91382 14.3872 8.84615 14.6154 8.84615C14.9213 8.8465 15.2146 8.96818 15.4309 9.18449C15.6472 9.4008 15.7689 9.69409 15.7692 10ZM6.53846 10C6.53846 10.2282 6.47079 10.4513 6.34401 10.641C6.21722 10.8308 6.03701 10.9787 5.82618 11.066C5.61534 11.1533 5.38334 11.1762 5.15951 11.1317C4.93569 11.0872 4.73009 10.9773 4.56873 10.8159C4.40736 10.6545 4.29746 10.4489 4.25294 10.2251C4.20842 10.0013 4.23127 9.76928 4.3186 9.55844C4.40594 9.3476 4.55383 9.1674 4.74358 9.04061C4.93333 8.91382 5.15641 8.84615 5.38462 8.84615C5.69053 8.8465 5.98381 8.96818 6.20012 9.18449C6.41644 9.4008 6.53811 9.69409 6.53846 10Z" fill="white"/>
</svg>
