<svg width="211" height="37" viewBox="0 0 211 37" fill="none" xmlns="http://www.w3.org/2000/svg">
<path d="M1.032 18.124C1.032 13.108 4.704 9.556 9.384 9.556C13.008 9.556 15.888 11.38 17.136 14.62H14.52C13.608 12.604 11.832 11.476 9.384 11.476C5.88 11.476 3.264 14.02 3.264 18.124C3.264 22.204 5.88 24.748 9.384 24.748C11.832 24.748 13.608 23.62 14.52 21.628H17.136C15.888 24.844 13.008 26.644 9.384 26.644C4.704 26.644 1.032 23.14 1.032 18.124Z" fill="#FF014F"/>
<path d="M22.032 19.876C22.032 15.772 24.744 13.132 28.272 13.132C30.72 13.132 32.4 14.38 33.168 15.748V13.348H35.376V26.5H33.168V24.052C32.376 25.468 30.672 26.716 28.248 26.716C24.744 26.716 22.032 23.956 22.032 19.876ZM33.168 19.9C33.168 16.852 31.104 15.028 28.704 15.028C26.304 15.028 24.264 16.78 24.264 19.876C24.264 22.972 26.304 24.796 28.704 24.796C31.104 24.796 33.168 22.996 33.168 19.9ZM41.2508 19.348V26.5H39.0668V13.348H41.2508V15.484C41.9948 14.02 43.4108 13.108 45.4988 13.108V15.364H44.9228C42.8348 15.364 41.2508 16.3 41.2508 19.348ZM60.4999 19.9C60.4999 24.076 57.4999 26.716 53.7559 26.716C50.0359 26.716 47.2039 24.076 47.2039 19.9C47.2039 15.748 50.1319 13.132 53.8519 13.132C57.5959 13.132 60.4999 15.748 60.4999 19.9ZM49.4359 19.9C49.4359 23.236 51.4759 24.796 53.7559 24.796C56.0359 24.796 58.2679 23.236 58.2679 19.9C58.2679 16.588 56.0839 15.028 53.8279 15.028C51.5239 15.028 49.4359 16.588 49.4359 19.9ZM63.3714 26.5V8.74H65.5554V26.5H63.3714ZM69.2777 26.5V13.348H71.4617V26.5H69.2777ZM70.4057 11.212C69.5657 11.212 68.9177 10.564 68.9177 9.724C68.9177 8.884 69.5657 8.236 70.4057 8.236C71.1977 8.236 71.8457 8.884 71.8457 9.724C71.8457 10.564 71.1977 11.212 70.4057 11.212ZM84.8079 26.5V19.06C84.8079 16.372 83.3439 15.004 81.1359 15.004C78.9039 15.004 77.3679 16.396 77.3679 19.228V26.5H75.1839V13.348H77.3679V15.22C78.2319 13.852 79.8159 13.108 81.5919 13.108C84.6399 13.108 86.9679 14.98 86.9679 18.748V26.5H84.8079ZM96.1275 14.98C93.9915 14.98 92.2155 16.396 91.9755 18.964H100.28C100.304 16.396 98.3835 14.98 96.1275 14.98ZM102.272 22.444C101.6 24.844 99.4875 26.716 96.2235 26.716C92.4795 26.716 89.7195 24.076 89.7195 19.9C89.7195 15.748 92.3835 13.132 96.2235 13.132C100.04 13.132 102.536 15.82 102.536 19.42C102.536 19.9 102.512 20.284 102.464 20.74H91.9515C92.1195 23.404 93.9915 24.868 96.2235 24.868C98.1915 24.868 99.4395 23.86 99.9195 22.444H102.272Z" fill="white" fill-opacity="0.65098"/>
<path d="M107.848 26.5V9.892H110.2L116.344 23.62L122.488 9.892H124.816V26.5H122.632V14.116L117.112 26.5H115.576L110.032 14.092V26.5H107.848Z" fill="#FF014F"/>
<path d="M130.032 19.876C130.032 15.772 132.744 13.132 136.272 13.132C138.72 13.132 140.4 14.38 141.168 15.748V13.348H143.376V26.5H141.168V24.052C140.376 25.468 138.672 26.716 136.248 26.716C132.744 26.716 130.032 23.956 130.032 19.876ZM141.168 19.9C141.168 16.852 139.104 15.028 136.704 15.028C134.304 15.028 132.264 16.78 132.264 19.876C132.264 22.972 134.304 24.796 136.704 24.796C139.104 24.796 141.168 22.996 141.168 19.9ZM147.067 26.5V8.74H149.251V26.5H147.067ZM151.413 13.348H153.765L157.869 24.484L161.949 13.348H164.277L159.117 26.5H156.573L151.413 13.348ZM172.018 14.98C169.882 14.98 168.106 16.396 167.866 18.964H176.17C176.194 16.396 174.274 14.98 172.018 14.98ZM178.162 22.444C177.49 24.844 175.378 26.716 172.114 26.716C168.37 26.716 165.61 24.076 165.61 19.9C165.61 15.748 168.274 13.132 172.114 13.132C175.93 13.132 178.426 15.82 178.426 19.42C178.426 19.9 178.402 20.284 178.354 20.74H167.842C168.01 23.404 169.882 24.868 172.114 24.868C174.082 24.868 175.33 23.86 175.81 22.444H178.162ZM181.309 26.5V13.348H183.493V26.5H181.309ZM182.437 11.212C181.597 11.212 180.949 10.564 180.949 9.724C180.949 8.884 181.597 8.236 182.437 8.236C183.229 8.236 183.877 8.884 183.877 9.724C183.877 10.564 183.229 11.212 182.437 11.212ZM189.399 19.348V26.5H187.215V13.348H189.399V15.484C190.143 14.02 191.559 13.108 193.647 13.108V15.364H193.071C190.983 15.364 189.399 16.3 189.399 19.348ZM195.352 19.876C195.352 15.772 198.064 13.132 201.592 13.132C204.04 13.132 205.72 14.38 206.488 15.748V13.348H208.696V26.5H206.488V24.052C205.696 25.468 203.992 26.716 201.568 26.716C198.064 26.716 195.352 23.956 195.352 19.876ZM206.488 19.9C206.488 16.852 204.424 15.028 202.024 15.028C199.624 15.028 197.584 16.78 197.584 19.876C197.584 22.972 199.624 24.796 202.024 24.796C204.424 24.796 206.488 22.996 206.488 19.9Z" fill="white" fill-opacity="0.65098"/>
</svg>
