<svg width="50" height="46" viewBox="0 0 50 46" fill="none" xmlns="http://www.w3.org/2000/svg">
<path d="M48.8549 0.798932C48.4012 0.407073 47.8489 0.146837 47.2579 0.0464167C46.6669 -0.0540036 46.0596 0.00922132 45.502 0.229242L2.08905 17.2844C1.42692 17.5445 0.866828 18.012 0.492574 18.617C0.11832 19.222 -0.0499712 19.9319 0.0128826 20.6405C0.0757364 21.3491 0.366356 22.0183 0.841254 22.548C1.31615 23.0776 1.94979 23.4393 2.64737 23.5788L14.0527 25.8597V40.019C14.0521 40.6706 14.2449 41.3077 14.6067 41.8496C14.9685 42.3915 15.4829 42.8139 16.0849 43.0632C16.6869 43.3126 17.3494 43.3776 17.9884 43.2502C18.6274 43.1227 19.2142 42.8085 19.6745 42.3474L26.089 35.9329L35.6828 44.3755C36.2795 44.9053 37.0495 45.1983 37.8474 45.1993C38.1943 45.1989 38.539 45.1442 38.869 45.0373C39.4132 44.8647 39.9028 44.5523 40.2887 44.1314C40.6745 43.7105 40.9433 43.1958 41.0682 42.6386L49.9159 4.03009C50.0507 3.44596 50.023 2.83609 49.836 2.26654C49.649 1.69698 49.3097 1.18946 48.8549 0.798932ZM2.82459 20.391C2.80936 20.289 2.83079 20.1848 2.88509 20.0971C2.93939 20.0094 3.02303 19.9437 3.12115 19.9118L39.4468 5.64096L15.1369 23.198L3.20086 20.8107C3.09863 20.7966 3.00471 20.7467 2.93582 20.6698C2.86692 20.593 2.82751 20.4942 2.82459 20.391ZM17.6785 40.3516C17.6127 40.4174 17.5289 40.4622 17.4376 40.4804C17.3464 40.4985 17.2518 40.4892 17.1658 40.4536C17.0799 40.418 17.0064 40.3577 16.9547 40.2803C16.903 40.203 16.8754 40.112 16.8754 40.019V27.8248L23.9658 34.0644L17.6785 40.3516ZM38.3168 42.0081C38.2986 42.0875 38.2601 42.1609 38.205 42.2209C38.15 42.281 38.0802 42.3258 38.0027 42.3508C37.9251 42.3758 37.8424 42.3803 37.7626 42.3637C37.6828 42.3472 37.6086 42.3102 37.5474 42.2564L17.724 24.8116L47.1235 3.5787L38.3168 42.0081Z" fill="#FF014F"/>
</svg>
