<svg width="52" height="43" viewBox="0 0 52 43" fill="none" xmlns="http://www.w3.org/2000/svg">
<path d="M37.3636 41.9091V37.3636C37.3636 34.9526 36.4058 32.6402 34.701 30.9354C32.9961 29.2305 30.6838 28.2727 28.2727 28.2727H10.0909C7.67985 28.2727 5.36754 29.2305 3.66267 30.9354C1.95779 32.6402 1 34.9526 1 37.3636V41.9091" stroke="#FF014F" stroke-width="2" stroke-linecap="round" stroke-linejoin="round"/>
<path d="M19.1819 19.1818C24.2026 19.1818 28.2728 15.1117 28.2728 10.0909C28.2728 5.07014 24.2026 1 19.1819 1C14.1611 1 10.0909 5.07014 10.0909 10.0909C10.0909 15.1117 14.1611 19.1818 19.1819 19.1818Z" stroke="#FF014F" stroke-width="2" stroke-linecap="round" stroke-linejoin="round"/>
<path d="M50.9999 41.9088V37.3633C50.9984 35.3491 50.328 33.3924 49.094 31.8004C47.8599 30.2085 46.1321 29.0714 44.1818 28.5679" stroke="#FF014F" stroke-width="2" stroke-linecap="round" stroke-linejoin="round"/>
<path d="M35.0909 1.29517C37.0464 1.79585 38.7797 2.93312 40.0174 4.52769C41.2551 6.12226 41.9269 8.08342 41.9269 10.102C41.9269 12.1206 41.2551 14.0817 40.0174 15.6763C38.7797 17.2708 37.0464 18.4081 35.0909 18.9088" stroke="#FF014F" stroke-width="2" stroke-linecap="round" stroke-linejoin="round"/>
</svg>
