<svg width="142" height="148" viewBox="0 0 142 148" fill="none" xmlns="http://www.w3.org/2000/svg">
<path d="M19.752 1.50923L71.7503 63.555C71.3984 63.5288 71.0215 63.5288 70.6445 63.5288C66.8272 63.5288 63.0644 64.0775 59.4325 65.1045L10.28 7.43019L16.0827 1.37816C16.5853 0.880119 17.2639 0.565565 17.9425 0.61799C18.6462 0.644203 19.2996 0.958758 19.752 1.50923ZM1.00345 17.1059C0.0735583 18.0757 0.0232943 19.6485 0.902918 20.697L44.5071 72.8606C45.437 72.1004 46.4171 71.3665 47.4224 70.6849C49.6011 69.2057 51.9022 67.9748 54.2777 66.9459L6.72024 11.1432L1.00345 17.1059ZM125.206 1.37816C124.704 0.880119 124.025 0.591778 123.321 0.61799C122.643 0.644203 121.964 0.98497 121.512 1.53544L104.196 22.4795L73.8614 58.129L76.1735 60.8813L78.9381 64.3676C80.4947 64.6832 82.014 65.1165 83.5131 65.6106L131.021 7.44277L125.206 1.37816ZM140.286 17.1059L134.588 11.1629L88.4639 67.6366C90.2938 68.5203 92.0899 69.4977 93.8163 70.6587C94.8216 71.3402 95.8017 72.048 96.7567 72.8344L140.386 20.697C141.266 19.6485 141.215 18.102 140.286 17.1059ZM106.963 11.1031L115.633 0.61799H25.6842L34.4698 11.1031H106.963ZM93.7713 26.8308L100.44 18.9914L102.628 16.3457H38.8629L47.6486 26.8308H93.7713ZM88.2369 108.091C88.2369 118.209 80.344 126.44 70.6445 126.44C60.945 126.44 53.052 118.209 53.052 108.091C53.052 97.9728 60.945 89.7417 70.6445 89.7417C80.344 89.7417 88.2369 97.9728 88.2369 108.091ZM91.0889 75.0675C86.2588 71.7948 80.9182 69.7711 75.2293 69.0545C73.7762 68.8637 72.2766 68.7714 70.6445 68.7714C63.3527 68.7714 56.2646 70.9562 50.1485 75.0916C39.3766 82.3884 32.9463 94.7245 32.9463 108.091C32.9463 129.771 49.8565 147.41 70.6445 147.41C91.4325 147.41 108.343 129.771 108.343 108.091C108.343 94.6796 101.89 82.3321 91.0889 75.0675ZM70.6445 131.682C58.1717 131.682 48.0256 121.099 48.0256 108.091C48.0256 95.0828 58.1717 84.4991 70.6445 84.4991C83.1173 84.4991 93.2634 95.0828 93.2634 108.091C93.2634 121.099 83.1173 131.682 70.6445 131.682Z" fill="white"/>
<path d="M65.1524 114.054V111.514C68.2524 108.954 71.5524 106.414 71.5524 103.954C71.5524 102.894 71.0724 102.214 70.0324 102.214C69.0124 102.214 68.4124 103.014 68.4124 104.394H65.1124C65.2124 100.854 67.5124 99.3344 70.1724 99.3344C73.4924 99.3344 74.9724 101.274 74.9724 103.734C74.9724 106.934 72.1124 109.494 69.7924 111.274H75.1924V114.054H65.1524Z" fill="#444444"/>
</svg>
